<mxfile host="app.diagrams.net" modified="2024-05-14T12:33:16.024Z" agent="Mozilla/5.0 (X11; Linux x86_64) AppleWebKit/537.36 (KHTML, like Gecko) Chrome/124.0.0.0 Safari/537.36" version="24.4.0" etag="s_lrEhSAjnBl-guiaOT8" type="github">
  <diagram name="第 1 页" id="PMOZxPjxoQlB0c3pLiQU">
    <mxGraphModel>
      <root>
        <mxCell id="0" />
        <mxCell id="1" parent="0" />
      </root>
    </mxGraphModel>
  </diagram>
</mxfile>
